<svg width="19" height="19" viewBox="0 0 19 19" fill="none" xmlns="http://www.w3.org/2000/svg">
<g id="Group">
<path id="Vector" d="M13.1374 0.5H5.86168C4.44003 0.501671 3.0771 1.06722 2.07193 2.07256C1.06675 3.07791 0.501432 4.44093 0.5 5.86258L0.5 13.1383C0.501671 14.56 1.06722 15.9229 2.07256 16.9281C3.07791 17.9332 4.44093 18.4986 5.86258 18.5H13.1383C14.56 18.4983 15.9229 17.9328 16.9281 16.9274C17.9332 15.9221 18.4986 14.5591 18.5 13.1374V5.86168C18.4983 4.44003 17.9328 3.0771 16.9274 2.07193C15.9221 1.06675 14.5591 0.501432 13.1374 0.5ZM16.6896 13.1374C16.6896 13.6039 16.5978 14.0658 16.4192 14.4968C16.2407 14.9278 15.9791 15.3194 15.6492 15.6492C15.3194 15.9791 14.9278 16.2407 14.4968 16.4192C14.0658 16.5978 13.6039 16.6896 13.1374 16.6896H5.86168C4.91973 16.6894 4.01644 16.315 3.35047 15.6489C2.68449 14.9827 2.31037 14.0794 2.31037 13.1374V5.86168C2.31061 4.91973 2.68496 4.01644 3.35111 3.35047C4.01725 2.68449 4.92063 2.31037 5.86258 2.31037H13.1383C14.0803 2.31061 14.9836 2.68496 15.6495 3.35111C16.3155 4.01725 16.6896 4.92063 16.6896 5.86258V13.1374Z" fill="white"/>
<path id="Vector_2" d="M9.49953 4.84497C8.26565 4.84688 7.08288 5.33794 6.21048 6.21051C5.33808 7.08307 4.84725 8.26594 4.84558 9.49982C4.84701 10.734 5.33786 11.9172 6.21048 12.79C7.0831 13.6628 8.26624 14.1539 9.50043 14.1556C10.7348 14.1541 11.9181 13.6632 12.791 12.7903C13.6638 11.9175 14.1547 10.7342 14.1562 9.49982C14.1543 8.26563 13.663 7.08258 12.79 6.21013C11.917 5.33769 10.7337 4.84706 9.49953 4.84587V4.84497ZM9.49953 12.3452C8.74512 12.3452 8.02162 12.0455 7.48818 11.5121C6.95473 10.9786 6.65505 10.2551 6.65505 9.50072C6.65505 8.74632 6.95473 8.02281 7.48818 7.48937C8.02162 6.95593 8.74512 6.65624 9.49953 6.65624C10.2539 6.65624 10.9774 6.95593 11.5109 7.48937C12.0443 8.02281 12.344 8.74632 12.344 9.50072C12.344 10.2551 12.0443 10.9786 11.5109 11.5121C10.9774 12.0455 10.2539 12.3452 9.49953 12.3452Z" fill="white"/>
<path id="Vector_3" d="M14.1643 5.9954C14.7803 5.9954 15.2796 5.49608 15.2796 4.88014C15.2796 4.26421 14.7803 3.76489 14.1643 3.76489C13.5484 3.76489 13.0491 4.26421 13.0491 4.88014C13.0491 5.49608 13.5484 5.9954 14.1643 5.9954Z" fill="white"/>
</g>
</svg>
