<svg width="20" height="20" viewBox="0 0 20 20" fill="none" xmlns="http://www.w3.org/2000/svg">
<g id="logos:whatsapp-icon" clip-path="url(#clip0_95_405)">
<path id="Vector" d="M0.500988 9.88041C0.500522 11.5608 0.939592 13.2016 1.77448 14.6478L0.421143 19.589L5.47789 18.2631C6.87651 19.0245 8.44358 19.4235 10.036 19.4236H10.0402C15.2972 19.4236 19.5765 15.1458 19.5787 9.88793C19.5797 7.3401 18.5884 4.94428 16.7873 3.1418C14.9866 1.33948 12.5916 0.346378 10.0398 0.345215C4.78223 0.345215 0.503236 4.62273 0.501065 9.88041" fill="url(#paint0_linear_95_405)"/>
<path id="Vector_2" d="M0.16046 9.87721C0.159918 11.6181 0.614724 13.3175 1.47938 14.8155L0.0775146 19.9339L5.31558 18.5605C6.75883 19.3474 8.38379 19.7622 10.0373 19.7629H10.0415C15.4871 19.7629 19.9202 15.3312 19.9225 9.88512C19.9234 7.24574 18.8964 4.7638 17.031 2.89674C15.1653 1.02992 12.6847 0.00108527 10.0415 0C4.59503 0 0.162631 4.43101 0.16046 9.87721ZM3.27984 14.5575L3.08426 14.2471C2.26209 12.9398 1.82813 11.4291 1.82876 9.87783C1.83054 5.35109 5.51457 1.66822 10.0446 1.66822C12.2384 1.66915 14.3002 2.52434 15.8508 4.07597C17.4015 5.62775 18.2547 7.69054 18.2542 9.8845C18.2522 14.4112 14.5681 18.0946 10.0415 18.0946H10.0383C8.56441 18.0938 7.11891 17.698 5.85829 16.95L5.55829 16.7721L2.44992 17.5871L3.27984 14.5574V14.5575Z" fill="url(#paint1_linear_95_405)"/>
<path id="Vector_3" d="M7.57191 5.74801C7.38695 5.33692 7.1923 5.32863 7.01641 5.32142C6.87238 5.31522 6.70773 5.31568 6.54323 5.31568C6.37858 5.31568 6.11106 5.37762 5.88494 5.62452C5.65858 5.87165 5.02075 6.46886 5.02075 7.68351C5.02075 8.89824 5.90548 10.0721 6.02881 10.237C6.1523 10.4016 7.7368 12.974 10.2463 13.9636C12.3318 14.786 12.7563 14.6224 13.2089 14.5812C13.6616 14.5401 14.6697 13.9841 14.8753 13.4076C15.0811 12.8312 15.0811 12.3371 15.0194 12.2338C14.9577 12.131 14.7931 12.0692 14.5462 11.9458C14.2992 11.8223 13.0854 11.225 12.8591 11.1426C12.6328 11.0603 12.4682 11.0192 12.3035 11.2664C12.1389 11.5132 11.6661 12.0692 11.522 12.2338C11.378 12.3989 11.2339 12.4194 10.9871 12.2959C10.7401 12.172 9.94494 11.9117 9.00161 11.0706C8.26765 10.4162 7.77215 9.60808 7.62812 9.36088C7.48409 9.11405 7.61269 8.98026 7.73649 8.85723C7.84742 8.74661 7.98347 8.56894 8.10703 8.42483C8.23013 8.28064 8.27122 8.17777 8.35354 8.01312C8.43595 7.84832 8.39471 7.70413 8.33308 7.58064C8.27122 7.45715 7.79145 6.23615 7.57191 5.74801Z" fill="white"/>
</g>
<defs>
<linearGradient id="paint0_linear_95_405" x1="958.301" y1="1924.73" x2="958.301" y2="0.345215" gradientUnits="userSpaceOnUse">
<stop stop-color="#1FAF38"/>
<stop offset="1" stop-color="#60D669"/>
</linearGradient>
<linearGradient id="paint1_linear_95_405" x1="992.326" y1="1993.39" x2="992.326" y2="0" gradientUnits="userSpaceOnUse">
<stop stop-color="#F9F9F9"/>
<stop offset="1" stop-color="white"/>
</linearGradient>
<clipPath id="clip0_95_405">
<rect width="19.845" height="20" fill="white" transform="translate(0.0775146)"/>
</clipPath>
</defs>
</svg>
