<svg width="16" height="18" viewBox="0 0 16 18" fill="none" xmlns="http://www.w3.org/2000/svg">
<g id="logos:tiktok-icon" clip-path="url(#clip0_95_401)">
<path id="Vector" d="M11.831 6.48137C12.9903 7.30968 14.4105 7.79704 15.9445 7.79704V4.8469C15.6541 4.84696 15.3646 4.81668 15.0806 4.75653V7.07872C13.5468 7.07872 12.1267 6.59141 10.9671 5.76316V11.7836C10.9671 14.7954 8.52436 17.2367 5.51128 17.2367C4.38703 17.2367 3.34203 16.897 2.474 16.3143C3.46474 17.3269 4.8464 17.9549 6.37491 17.9549C9.38823 17.9549 11.8311 15.5136 11.8311 12.5017V6.48137H11.831ZM12.8967 3.50503C12.3042 2.85809 11.9151 2.02202 11.831 1.09769V0.718262H11.0123C11.2184 1.89304 11.9213 2.8967 12.8967 3.50503ZM4.37976 14.0033C4.04874 13.5695 3.86981 13.0388 3.87061 12.4931C3.87061 11.1157 4.98792 9.99881 6.36641 9.99881C6.62326 9.99868 6.8786 10.0381 7.12346 10.1157V7.09957C6.83732 7.06041 6.54858 7.04371 6.25996 7.04985V9.39743C6.01499 9.31978 5.75951 9.28038 5.50253 9.28061C4.1241 9.28061 3.00686 10.3974 3.00686 11.775C3.00686 12.7491 3.5653 13.5924 4.37976 14.0033Z" fill="#FF004F"/>
<path id="Vector_2" d="M10.967 5.7631C12.1267 6.59135 13.5466 7.07865 15.0805 7.07865V4.75647C14.2243 4.57417 13.4664 4.12703 12.8965 3.50503C11.9211 2.89663 11.2183 1.89298 11.0122 0.718262H8.86197V12.5016C8.85707 13.8753 7.74169 14.9876 6.36618 14.9876C5.55568 14.9876 4.83556 14.6015 4.37954 14.0032C3.56519 13.5924 3.0067 12.749 3.0067 11.775C3.0067 10.3975 4.12394 9.28067 5.50237 9.28067C5.76647 9.28067 6.02101 9.32176 6.25979 9.39749V7.04992C3.2996 7.11105 0.918945 9.52852 0.918945 12.5017C0.918945 13.9859 1.51177 15.3313 2.47396 16.3145C3.34199 16.897 4.38692 17.2368 5.51124 17.2368C8.52438 17.2368 10.9671 14.7953 10.9671 11.7836V5.76316L10.967 5.7631Z" fill="black"/>
<path id="Vector_3" d="M15.0805 4.75634V4.12858C14.3084 4.12975 13.5516 3.91365 12.8966 3.50497C13.4764 4.13945 14.2399 4.57698 15.0805 4.75647V4.75634ZM11.0122 0.718138C10.9926 0.605893 10.9775 0.492896 10.967 0.379428V0H7.99802V11.7835C7.9933 13.1571 6.87792 14.2693 5.50235 14.2693C5.11238 14.2699 4.72775 14.1788 4.37952 14.0033C4.83554 14.6014 5.55567 14.9875 6.36616 14.9875C7.74161 14.9875 8.85711 13.8753 8.86195 12.5016V0.7182H11.0122V0.718138ZM6.25996 7.04979V6.38137C6.01187 6.34746 5.76175 6.3305 5.51135 6.3306C2.4979 6.3306 0.0551758 8.77202 0.0551758 11.7835C0.0551758 13.6716 1.0152 15.3355 2.47407 16.3143C1.51187 15.3312 0.919052 13.9857 0.919052 12.5016C0.919052 9.52846 3.29964 7.11093 6.25996 7.04979Z" fill="#00F2EA"/>
</g>
<defs>
<clipPath id="clip0_95_401">
<rect width="15.8897" height="18" fill="white" transform="translate(0.0551758)"/>
</clipPath>
</defs>
</svg>
