<svg width="24" height="18" viewBox="0 0 24 18" fill="none" xmlns="http://www.w3.org/2000/svg">
<g id="logos:twitter" clip-path="url(#clip0_95_389)">
<path id="Vector" d="M23.0239 2.19187C22.1983 2.55762 21.3226 2.7977 20.4259 2.90412C21.3599 2.34431 22.0771 1.45783 22.4148 0.401605C21.5269 0.928501 20.5554 1.29973 19.5424 1.49926C18.7173 0.620188 17.5418 0.0708008 16.2407 0.0708008C13.7426 0.0708008 11.7172 2.0961 11.7172 4.59405C11.7172 4.94863 11.7572 5.29381 11.8343 5.62496C8.07496 5.43626 4.74195 3.63549 2.5109 0.898801C2.12161 1.56687 1.89855 2.34397 1.89855 3.17283C1.89855 4.74219 2.69718 6.12664 3.91085 6.93784C3.19253 6.91535 2.49001 6.72134 1.86195 6.37201C1.86169 6.39095 1.86169 6.4099 1.86169 6.42894C1.86169 8.62054 3.42089 10.4488 5.49011 10.8643C4.82402 11.0455 4.12532 11.072 3.44741 10.9419C4.02298 12.7389 5.69354 14.0466 7.67285 14.0832C6.12476 15.2964 4.1743 16.0196 2.05513 16.0196C1.68996 16.0196 1.32996 15.9981 0.976074 15.9564C2.97786 17.2398 5.3555 17.9886 7.90995 17.9886C16.2302 17.9886 20.7799 11.096 20.7799 5.11864C20.7799 4.92245 20.7756 4.72738 20.7668 4.53342C21.6523 3.89325 22.4167 3.10033 23.0239 2.19187Z" fill="#1D9BF0"/>
</g>
<defs>
<clipPath id="clip0_95_389">
<rect width="22.0478" height="18" fill="white" transform="translate(0.976074)"/>
</clipPath>
</defs>
</svg>
