<svg width="21" height="21" viewBox="0 0 21 21" fill="none" xmlns="http://www.w3.org/2000/svg">
<g id="ph:tiktok-logo">
<path id="Vector" d="M18 6.125C17.0058 6.12397 16.0525 5.72855 15.3495 5.02551C14.6465 4.32247 14.251 3.36924 14.25 2.375C14.25 2.20924 14.1842 2.05027 14.0669 1.93306C13.9497 1.81585 13.7908 1.75 13.625 1.75H10.5C10.3342 1.75 10.1753 1.81585 10.0581 1.93306C9.94085 2.05027 9.875 2.20924 9.875 2.375V12.6875C9.87487 12.9671 9.79972 13.2415 9.65739 13.4822C9.51506 13.7229 9.31076 13.9209 9.0658 14.0557C8.82084 14.1905 8.5442 14.2571 8.26474 14.2486C7.98527 14.24 7.71322 14.1566 7.47695 14.0071C7.24069 13.8576 7.04888 13.6474 6.92152 13.3985C6.79416 13.1496 6.73592 12.8711 6.75288 12.592C6.76983 12.3129 6.86137 12.0435 7.01793 11.8119C7.17449 11.5802 7.39034 11.3948 7.64297 11.275C7.74983 11.2243 7.84011 11.1443 7.90331 11.0443C7.96651 10.9443 8.00004 10.8284 8 10.7102V7.375C8.00004 7.28364 7.98005 7.19338 7.94144 7.11058C7.90283 7.02778 7.84653 6.95446 7.77652 6.89576C7.7065 6.83707 7.62447 6.79444 7.53621 6.77088C7.44794 6.74731 7.35558 6.74339 7.26562 6.75938C4.47734 7.25625 2.375 9.80469 2.375 12.6875C2.375 14.2622 3.00056 15.7724 4.11405 16.8859C5.22755 17.9994 6.73778 18.625 8.3125 18.625C9.88722 18.625 11.3974 17.9994 12.5109 16.8859C13.6244 15.7724 14.25 14.2622 14.25 12.6875V9.58516C15.4075 10.1891 16.6944 10.503 18 10.5C18.1658 10.5 18.3247 10.4342 18.4419 10.3169C18.5592 10.1997 18.625 10.0408 18.625 9.875V6.75C18.625 6.58424 18.5592 6.42527 18.4419 6.30806C18.3247 6.19085 18.1658 6.125 18 6.125ZM17.375 9.22188C16.1536 9.11365 14.9841 8.67774 13.9898 7.96016C13.8964 7.89297 13.7862 7.85289 13.6714 7.84434C13.5566 7.83579 13.4417 7.8591 13.3394 7.9117C13.237 7.9643 13.1511 8.04415 13.0912 8.14244C13.0314 8.24074 12.9998 8.35365 13 8.46875V12.6875C13 13.9307 12.5061 15.123 11.6271 16.0021C10.748 16.8811 9.5557 17.375 8.3125 17.375C7.0693 17.375 5.87701 16.8811 4.99794 16.0021C4.11886 15.123 3.625 13.9307 3.625 12.6875C3.625 10.6641 4.925 8.84922 6.75 8.1875V10.3492C6.34598 10.6192 6.01878 10.9892 5.80031 11.4232C5.58184 11.8572 5.47954 12.3405 5.50339 12.8258C5.52724 13.3111 5.67641 13.782 5.93638 14.1925C6.19635 14.603 6.55825 14.9392 6.98679 15.1682C7.41533 15.3972 7.8959 15.5114 8.38166 15.4994C8.86742 15.4875 9.3418 15.3499 9.75857 15.1C10.1753 14.8502 10.5203 14.4966 10.7597 14.0738C10.9992 13.651 11.125 13.1734 11.125 12.6875V3H13.0391C13.1796 4.10085 13.6816 5.12389 14.4664 5.90862C15.2511 6.69335 16.2742 7.19538 17.375 7.33594V9.22188Z" fill="white"/>
</g>
</svg>
