<svg width="19" height="19" viewBox="0 0 19 19" fill="none" xmlns="http://www.w3.org/2000/svg">
<path id="Vector" d="M15.845 3.11905C15.0199 2.28558 14.0371 1.62475 12.9539 1.1751C11.8707 0.725444 10.7088 0.495968 9.53602 0.500054C4.62203 0.500054 0.617044 4.50504 0.617044 9.41903C0.617044 10.994 1.03104 12.524 1.80504 13.874L0.545044 18.5L5.27003 17.258C6.57503 17.969 8.04202 18.347 9.53602 18.347C14.45 18.347 18.455 14.342 18.455 9.42803C18.455 7.04303 17.528 4.80204 15.845 3.11905ZM9.53602 16.835C8.20402 16.835 6.89903 16.475 5.75603 15.8L5.48603 15.638L2.67804 16.376L3.42504 13.64L3.24504 13.361C2.50501 12.1793 2.11207 10.8133 2.11104 9.41903C2.11104 5.33304 5.44103 2.00305 9.52702 2.00305C11.507 2.00305 13.37 2.77705 14.765 4.18104C15.4557 4.86861 16.0031 5.68643 16.3755 6.58712C16.7478 7.4878 16.9376 8.45343 16.934 9.42803C16.952 13.514 13.622 16.835 9.53602 16.835ZM13.604 11.291C13.379 11.183 12.281 10.643 12.083 10.562C11.876 10.49 11.732 10.454 11.579 10.67C11.426 10.895 11.003 11.399 10.877 11.543C10.751 11.696 10.616 11.714 10.391 11.597C10.166 11.489 9.44602 11.246 8.60002 10.49C7.93402 9.89603 7.49302 9.16703 7.35802 8.94203C7.23202 8.71703 7.34002 8.60003 7.45702 8.48303C7.55602 8.38403 7.68202 8.22203 7.79002 8.09603C7.89802 7.97003 7.94302 7.87103 8.01502 7.72703C8.08702 7.57403 8.05102 7.44803 7.99702 7.34003C7.94302 7.23203 7.49302 6.13404 7.31302 5.68404C7.13302 5.25204 6.94403 5.30604 6.80903 5.29704H6.37703C6.22403 5.29704 5.99003 5.35104 5.78303 5.57604C5.58503 5.80104 5.00903 6.34104 5.00903 7.43903C5.00903 8.53703 5.81003 9.59903 5.91803 9.74303C6.02603 9.89603 7.49302 12.146 9.72502 13.109C10.256 13.343 10.67 13.478 10.994 13.577C11.525 13.748 12.011 13.721 12.398 13.667C12.83 13.604 13.721 13.127 13.901 12.605C14.09 12.083 14.09 11.642 14.027 11.543C13.964 11.444 13.829 11.399 13.604 11.291Z" fill="white"/>
</svg>
